<svg xmlns="http://www.w3.org/2000/svg" viewBox="0 0 833 927">
  <path d="M 782,645 L 762,646 L 761,647 L 752,647 L 751,648 L 742,648 L 741,649 L 732,649 L 731,650 L 722,650 L 721,651 L 712,651 L 711,652 L 702,652 L 701,653 L 693,653 L 692,654 L 683,654 L 682,655 L 674,655 L 673,656 L 664,656 L 663,657 L 654,657 L 653,658 L 644,658 L 643,659 L 623,660 L 622,661 L 613,661 L 612,662 L 600,663 L 564,730 L 562,732 L 557,743 L 555,745 L 550,756 L 548,758 L 543,769 L 524,802 L 519,813 L 517,815 L 506,836 L 506,838 L 508,839 L 547,817 L 554,812 L 768,688 L 776,679 L 781,668 L 781,664 L 782,663 Z" fill="#612e99" />
  <path d="M 211,497 L 99,679 L 86,704 L 385,879 L 406,888 L 418,888 L 432,883 L 445,866 L 562,648 L 561,645 L 406,486 Z" fill="#612d9b" />
  <path d="M 463,59 L 473,89 L 549,277 L 441,464 L 593,621 L 600,622 L 781,603 L 782,274 L 781,255 L 777,244 L 765,232 L 468,59 Z" fill="#59dae7" />
  <path d="M 407,36 L 399,36 L 386,42 L 57,235 L 49,244 L 44,257 L 44,665 L 51,680 L 180,468 L 188,459 L 202,456 L 403,445 L 504,273 L 412,42 Z" fill="#6ab7f1" />
</svg>
